<?xml version="1.0" encoding="UTF-8"?>
<!--
  Спрайт SVG-иконок. Использование:
    <svg class="icon"><use href="#i-calendar"></use></svg>
  Ко всем иконкам применяются stroke: currentColor и fill: none (по классам).
-->
<svg xmlns="http://www.w3.org/2000/svg" style="display:none">
  <symbol id="i-calendar" viewBox="0 0 24 24">
    <rect x="3" y="4" width="18" height="18" rx="3" ry="3" fill="none" stroke="currentColor" stroke-width="2"/>
    <line x1="16" y1="2" x2="16" y2="6" stroke="currentColor" stroke-width="2" stroke-linecap="round"/>
    <line x1="8"  y1="2" x2="8"  y2="6" stroke="currentColor" stroke-width="2" stroke-linecap="round"/>
    <line x1="3" y1="10" x2="21" y2="10" stroke="currentColor" stroke-width="2"/>
  </symbol>
  <symbol id="i-chevron-left" viewBox="0 0 24 24">
    <polyline points="15 6 9 12 15 18" fill="none" stroke="currentColor" stroke-width="2.4" stroke-linecap="round" stroke-linejoin="round"/>
  </symbol>
  <symbol id="i-chevron-right" viewBox="0 0 24 24">
    <polyline points="9 6 15 12 9 18" fill="none" stroke="currentColor" stroke-width="2.4" stroke-linecap="round" stroke-linejoin="round"/>
  </symbol>
  <symbol id="i-refresh" viewBox="0 0 24 24">
    <polyline points="23 4 23 10 17 10" fill="none" stroke="currentColor" stroke-width="2" stroke-linecap="round" stroke-linejoin="round"/>
    <polyline points="1 20 1 14 7 14" fill="none" stroke="currentColor" stroke-width="2" stroke-linecap="round" stroke-linejoin="round"/>
    <path d="M3.51 9a9 9 0 0 1 14.85-3.36L23 10M1 14l4.64 4.36A9 9 0 0 0 20.49 15" fill="none" stroke="currentColor" stroke-width="2" stroke-linecap="round" stroke-linejoin="round"/>
  </symbol>
  <symbol id="i-user" viewBox="0 0 24 24">
    <path d="M20 21v-2a4 4 0 0 0-4-4H8a4 4 0 0 0-4 4v2" fill="none" stroke="currentColor" stroke-width="2" stroke-linecap="round" stroke-linejoin="round"/>
    <circle cx="12" cy="7" r="4" fill="none" stroke="currentColor" stroke-width="2"/>
  </symbol>
  <symbol id="i-book" viewBox="0 0 24 24">
    <path d="M4 5.5A2.5 2.5 0 0 1 6.5 3h11A2.5 2.5 0 0 1 20 5.5v13a.5.5 0 0 1-.79.406L12 13.83l-7.21 5.076A.5.5 0 0 1 4 18.5v-13z" fill="currentColor"/>
  </symbol>
  <symbol id="i-college" viewBox="0 0 24 24">
    <path d="M12 3L1 9l4 2.18v6L12 21l7-3.82v-6l2-1.09V17h2V9L12 3zm6.82 6L12 12.72 5.18 9 12 5.28 18.82 9zM17 15.99l-5 2.73-5-2.73v-3.72L12 15l5-2.73v3.72z" fill="currentColor"/>
  </symbol>
  <symbol id="i-university" viewBox="0 0 24 24">
    <path d="M12 3L1 9l11 6 9-4.91V17h2V9L12 3zM5 13.18v4L12 21l7-3.82v-4L12 17l-7-3.82z" fill="currentColor"/>
  </symbol>
  <symbol id="i-fullscreen" viewBox="0 0 24 24">
    <path d="M4 9V5a1 1 0 0 1 1-1h4M20 9V5a1 1 0 0 0-1-1h-4M4 15v4a1 1 0 0 0 1 1h4M20 15v4a1 1 0 0 1-1 1h-4"
      fill="none" stroke="currentColor" stroke-width="2" stroke-linecap="round" stroke-linejoin="round"/>
  </symbol>
  <symbol id="i-fullscreen-exit" viewBox="0 0 24 24">
    <path d="M9 4v4a1 1 0 0 1-1 1H4M15 4v4a1 1 0 0 0 1 1h4M9 20v-4a1 1 0 0 0-1-1H4M15 20v-4a1 1 0 0 1 1-1h4"
      fill="none" stroke="currentColor" stroke-width="2" stroke-linecap="round" stroke-linejoin="round"/>
  </symbol>
</svg>
